# xmcd
#
# Track frame offsets:
#	150
#	13258
#	23086
#	37748
#	51450
#	71387
#	82414
#	93884
#	107136
#	119885
#	134781
#	146620
#	160280
#	175233
#	198263
#	215318
#	239639
#	254571
#	266958
#	282367
#	295208
#	315929
#
# Disc length: 4401 seconds
#
# Revision: 2
# Processed by: cddbd v1.5.2PL0 Copyright (c) Steve Scherf et al.
# Submitted via: EasyCDDAExtractor 11.0.0.1
#
DISCID=5a112f16
DTITLE=Various Artist - Every Day I have the Blues
DYEAR=2004
DGENRE=Blues
TTITLE0=Elmore James - Dust My Broom
TTITLE1=John Lee Hooker - Dimples
TTITLE2=T-Bone Walker - I Got A Break Baby
TTITLE3=James Cotton - Cotton Crop Blues
TTITLE4=Muddy Waters - Baby Please Don't Go
TTITLE5=Howlin' Wolf - Highway Man
TTITLE6=Memphis Slim - Every Day I Have The Blues
TTITLE7=Little Junior Parker - Feelin' Good
TTITLE8=Jimmy Reed - Big Boss Man
TTITLE9=Elmore James - It Hurts To Me
TTITLE10=Otis Rush - All Your Love
TTITLE11=T-Bone Walker - Stormy Monday Blues
TTITLE12=Robert Cray - Sleeping In The Ground
TTITLE13=Little Milton - Annie Mae's Cafe
TTITLE14=Bobby Bland - Get Your Money Where You Spend
TTITLE15=Latimore - All You'll Ever Need
TTITLE16=Dr John - Zu Zu Man
TTITLE17=Ike Turner - How Long Will It Last
TTITLE18=Fenton Robinson - The Sky Is Crying
TTITLE19=Lightnin' Hopkins - Baby Please Don't Go
TTITLE20=Fred McDowell - Red Cross Store
TTITLE21=Muddy Waters - Rolling Stone
EXTD=
EXTT0=
EXTT1=
EXTT2=
EXTT3=
EXTT4=
EXTT5=
EXTT6=
EXTT7=
EXTT8=
EXTT9=
EXTT10=
EXTT11=
EXTT12=
EXTT13=
EXTT14=
EXTT15=
EXTT16=
EXTT17=
EXTT18=
EXTT19=
EXTT20=
EXTT21=
PLAYORDER=
